<?xml version="1.0" standalone="no"?>
<!DOCTYPE svg PUBLIC "-//W3C//DTD SVG 20010904//EN"
 "http://www.w3.org/TR/2001/REC-SVG-20010904/DTD/svg10.dtd">
<svg version="1.0" xmlns="http://www.w3.org/2000/svg"
 width="700.000000pt" height="700.000000pt" viewBox="0 0 700.000000 700.000000"
 preserveAspectRatio="xMidYMid meet">
<metadata>
Created by potrace 1.14, written by Peter Selinger 2001-2017
</metadata>
<g transform="translate(0.000000,700.000000) scale(0.100000,-0.100000)"
fill="#000000" stroke="none">
<path d="M5050 5695 l0 -795 -2208 -2 -2208 -3 -59 -30 c-66 -34 -125 -101
-144 -165 -8 -27 -11 -524 -11 -1819 l0 -1781 -210 0 -210 0 0 -40 c0 -99 47
-225 118 -319 73 -97 177 -168 306 -209 47 -16 285 -17 3081 -17 l3030 0 65
23 c223 81 379 274 397 494 l6 68 -212 0 -211 0 0 1784 c0 1974 5 1826 -65
1912 -21 25 -59 54 -93 71 l-57 28 -272 3 -273 3 0 795 0 794 -385 0 -385 0 0
-795z m0 -2445 l0 -1280 385 0 385 0 0 1280 0 1280 200 0 200 0 0 -1540 0
-1540 -2720 0 -2720 0 0 1540 0 1540 2135 0 2135 0 0 -1280z"/>
<path d="M3760 2900 l0 -930 385 0 385 0 0 930 0 930 -385 0 -385 0 0 -930z"/>
<path d="M2470 2565 l0 -595 385 0 385 0 0 595 0 595 -385 0 -385 0 0 -595z"/>
<path d="M1180 2250 l0 -280 385 0 385 0 0 280 0 280 -385 0 -385 0 0 -280z"/>
</g>
</svg>
