<?xml version="1.0" encoding="UTF-8" standalone="no"?>
<!-- Generator: Adobe Illustrator 19.0.0, SVG Export Plug-In . SVG Version: 6.00 Build 0)  -->

<svg
   version="1.1"
   id="Layer_1"
   x="0px"
   y="0px"
   viewBox="0 0 453.35 453.35"
   style="enable-background:new 0 0 453.35 453.35;"
   xml:space="preserve"
   sodipodi:docname="laptop-svgrepo-com.svg"
   inkscape:version="1.2.1 (9c6d41e410, 2022-07-14)"
   inkscape:export-filename="..\Documents\Github\client-inventory\assets\logo.png"
   inkscape:export-xdpi="96"
   inkscape:export-ydpi="96"
   xmlns:inkscape="http://www.inkscape.org/namespaces/inkscape"
   xmlns:sodipodi="http://sodipodi.sourceforge.net/DTD/sodipodi-0.dtd"
   xmlns="http://www.w3.org/2000/svg"
   xmlns:svg="http://www.w3.org/2000/svg"><defs
   id="defs126">
	
	
	
	
	
	
	
	
	

		
		
		
	</defs><sodipodi:namedview
   id="namedview124"
   pagecolor="#ffffff"
   bordercolor="#000000"
   borderopacity="0.25"
   inkscape:showpageshadow="2"
   inkscape:pageopacity="0.0"
   inkscape:pagecheckerboard="0"
   inkscape:deskcolor="#d1d1d1"
   showgrid="false"
   inkscape:zoom="0.92312781"
   inkscape:cx="154.90813"
   inkscape:cy="101.82772"
   inkscape:window-width="1920"
   inkscape:window-height="1017"
   inkscape:window-x="1912"
   inkscape:window-y="-8"
   inkscape:window-maximized="1"
   inkscape:current-layer="Layer_1" />
<rect
   x="76.75"
   y="289.51501"
   style="fill:#808080;fill-opacity:1"
   width="49.369999"
   height="36"
   id="rect65" /><rect
   x="160.24001"
   y="249.015"
   style="fill:#808080;fill-opacity:1"
   width="49.380001"
   height="76.5"
   id="rect67" /><rect
   x="243.74001"
   y="205.52499"
   style="fill:#808080;fill-opacity:1"
   width="49.369999"
   height="119.99"
   id="rect69" /><rect
   x="327.23001"
   y="33.334999"
   style="fill:#808080;fill-opacity:1"
   width="49.380001"
   height="292.17999"
   id="rect71" /><path
   style="fill:#f2f2f2"
   d="m 50.16,159.485 h 275.54 1.53 v 166.03 h 49.38 v -166.03 h 1.66 24.93 v 200.02 H 50.16 Z m 242.95,166.03 v -119.99 h -49.37 v 119.99 z m -83.49,0 v -76.5 h -49.38 v 76.5 z m -83.5,0 v -36 H 76.75 v 36 z"
   id="path73" /><path
   style="fill:#1d4dbc;fill-opacity:1"
   d="m 426.2,154.765 v 227.74 H 27.16 v -227.74 c 0,-10.1 8.18,-18.28 18.28,-18.28 h 281.79 v 23 H 50.16 v 200.02 H 403.2 v -200.02 h -26.59 v -23 h 31.31 c 5.05,0 9.61,2.04 12.92,5.35 1.86,1.86 3.33,4.12 4.25,6.64 0.11,0.28 0.2,0.57 0.29,0.85 0.18,0.57 0.33,1.16 0.45,1.75 0.24,1.19 0.37,2.43 0.37,3.69 z"
   id="path75" /><path
   style="fill:#1d4dbc;fill-opacity:1"
   d="m 426.2,382.505 h 27.15 c 0,20.72 -16.79,37.51 -37.5,37.51 H 37.5 c -10.36,0 -19.73,-4.2 -26.52,-10.99 C 4.2,402.245 0,392.865 0,382.505 h 27.16 z"
   id="path77" /><path
   style="opacity:0.23;fill:#f2f2f2;enable-background:new"
   d="m 426.2,154.765 v 227.74 H 238.38 l 11.97,-23 76.88,-147.73 27.21,-52.29 22.17,-41.87 v 18.87 h 31.31 c 5.05,0 9.61,2.04 12.92,5.35 1.86,1.86 3.33,4.12 4.25,6.64 0.11,0.28 0.2,0.57 0.29,0.85 0.18,0.57 0.33,1.16 0.45,1.75 0.24,1.19 0.37,2.43 0.37,3.69 z"
   id="path79" /><path
   style="opacity:0.23;fill:#f2f2f2;enable-background:new"
   d="m 117.28,136.485 v 19.53 l -1.8,3.47 -7.17,13.77 -11.83,22.74 -25.96,49.88 -12.39,23.82 -7.97,15.31 -15.97,30.69 -7.03,13.51 v -174.44 c 0,-10.1 8.19,-18.28 18.28,-18.28 z"
   id="path81" /><polygon
   style="opacity:0.23;fill:#f2f2f2;enable-background:new"
   points="353.5,33.335 331.19,76.205 327.23,83.815 327.23,33.335 "
   id="polygon83" /><g
   id="g89">
		<path
   style="opacity:0.23;fill:#f2f2f2;enable-background:new"
   d="m 453.35,382.505 c 0,11.27 -4.98,21.39 -12.85,28.26 H 318.92 l 14.7,-28.26 z"
   id="path87" />
	</g>
<g
   id="g93">
</g>
<g
   id="g95">
</g>
<g
   id="g97">
</g>
<g
   id="g99">
</g>
<g
   id="g101">
</g>
<g
   id="g103">
</g>
<g
   id="g105">
</g>
<g
   id="g107">
</g>
<g
   id="g109">
</g>
<g
   id="g111">
</g>
<g
   id="g113">
</g>
<g
   id="g115">
</g>
<g
   id="g117">
</g>
<g
   id="g119">
</g>
<g
   id="g121">
</g>
</svg>
